<?xml version="1.0" encoding="utf-8"?>
<!-- Generator: Adobe Illustrator 20.1.0, SVG Export Plug-In . SVG Version: 6.00 Build 0)  -->
<svg version="1.1" id="Layer_1" xmlns="http://www.w3.org/2000/svg" xmlns:xlink="http://www.w3.org/1999/xlink" x="0px" y="0px"
	 viewBox="0 0 300 300" style="enable-background:new 0 0 300 300;" xml:space="preserve">
<style type="text/css">
	.st0{fill:#FA7400;}
	.st1{font-family:'Chalkboard-Bold';}
	.st2{font-size:97px;}
</style>
<g>
	<g>
		<path class="st0" d="M276.7,81.3c0-0.1,0-0.2,0-0.2c0-0.2,0-0.3-0.1-0.5c0-0.1,0-0.1,0-0.2c0-0.2-0.1-0.4-0.1-0.6
			c0-0.1-0.1-0.2-0.1-0.2c-0.1-0.2-0.1-0.4-0.1-0.5c0-0.1-0.1-0.1-0.1-0.2c-0.1-0.2-0.2-0.4-0.2-0.7c0-0.1-0.1-0.1-0.1-0.2
			c-0.2-0.4-0.4-0.8-0.7-1.3c-0.1-0.1-0.1-0.1-0.1-0.1c-0.1-0.2-0.3-0.4-0.4-0.5c-0.1-0.1-0.1-0.1-0.1-0.1c-0.1-0.1-0.2-0.2-0.4-0.4
			c-0.1-0.1-0.1-0.1-0.2-0.2c-0.2-0.1-0.3-0.3-0.5-0.4c-0.1-0.1-0.1-0.1-0.2-0.1c-0.1-0.1-0.2-0.2-0.4-0.3c-0.1-0.1-0.1-0.1-0.2-0.1
			c-0.1,0-0.1-0.1-0.1-0.1L154,5.9c-2.5-1.4-5.5-1.4-8.1,0L27.4,74.3l-0.2,0.1l0,0l0,0c0,0,0,0-0.1,0c-0.1,0.1-0.3,0.2-0.4,0.2
			c0,0-0.1,0-0.1,0.1c-0.1,0.1-0.2,0.2-0.4,0.3l-0.1,0.1c-0.1,0.1-0.2,0.2-0.4,0.3l-0.1,0.1c-0.1,0.1-0.2,0.2-0.3,0.3
			c-0.1,0.1-0.1,0.1-0.1,0.1c-0.1,0.1-0.2,0.2-0.2,0.3c-0.1,0.1-0.1,0.1-0.1,0.1c-0.1,0.1-0.2,0.2-0.2,0.3c-0.1,0.1-0.1,0.1-0.1,0.1
			c-0.1,0.1-0.1,0.2-0.2,0.3c-0.1,0.1-0.1,0.1-0.1,0.2c-0.1,0.1-0.1,0.2-0.2,0.3c0,0.1-0.1,0.1-0.1,0.1c-0.1,0.1-0.1,0.2-0.2,0.3
			c0,0.1-0.1,0.1-0.1,0.2c-0.1,0.1-0.1,0.2-0.1,0.3c0,0.1-0.1,0.1-0.1,0.2c-0.1,0.1-0.1,0.2-0.1,0.3c0,0.1-0.1,0.1-0.1,0.2
			c-0.1,0.1-0.1,0.2-0.1,0.4c0,0.1,0,0.1-0.1,0.2c0,0.1-0.1,0.2-0.1,0.4c0,0.1,0,0.1,0,0.2c0,0.1-0.1,0.2-0.1,0.4c0,0.1,0,0.1,0,0.2
			c0,0.1,0,0.2-0.1,0.4c0,0.1,0,0.2,0,0.2c0,0.1,0,0.2,0,0.3l0,0l0,0v137.1c0,2.9,1.6,5.5,4.1,7L146,294.1c0,0,0.1,0,0.1,0.1
			c0.3,0.2,0.6,0.3,0.9,0.4h0.1c0.3,0.1,0.5,0.2,0.8,0.3c0.1,0,0.2,0.1,0.2,0.1c0.2,0.1,0.5,0.1,0.7,0.1c0.1,0,0.2,0,0.2,0.1
			c0.3,0.1,0.7,0.1,1,0.1s0.7,0,1-0.1c0.1,0,0.2,0,0.2-0.1c0.2-0.1,0.5-0.1,0.7-0.1c0.1,0,0.2-0.1,0.2-0.1c0.3-0.1,0.6-0.2,0.8-0.3
			h0.1c0.3-0.1,0.6-0.3,0.9-0.4c0,0,0.1,0,0.1-0.1l118.7-68.5c2.5-1.4,4.1-4.1,4.1-7V81.4C276.7,81.4,276.7,81.3,276.7,81.3z
			 M149.9,22.1l102.6,59.3l-42.7,24.7L108.1,46.3L149.9,22.1z M141.9,273.1L39.3,213.8V95.3l102.6,59.3V273.1L141.9,273.1z
			 M149.9,140.6L47.3,81.4l44.8-25.8l101.6,59.8L149.9,140.6z M260.6,213.8L158,273.1V154.6l55.9-32.2c0.4-0.2,0.7-0.4,1-0.7
			l45.8-26.4L260.6,213.8L260.6,213.8L260.6,213.8z"/>
	</g>
</g>
<text transform="matrix(1 0 0 1 58.752 216.1889)" class="st0 st1 st2">R</text>
<text transform="matrix(1 0 0 1 180.3553 216.1889)" class="st0 st1 st2">B</text>
</svg>
